<svg xmlns="http://www.w3.org/2000/svg" viewBox="20 173.05094768801177 534.9974420288872 228.89810462397645"> <g transform="rotate(0 115.40390872099131 287.5)"><svg xmlns="http://www.w3.org/2000/svg" xmlns:xlink="http://www.w3.org/1999/xlink" version="1.1" id="Livello_1" x="90" y="243.05094768801177" viewBox="851 832.7999877929688 163 285.20001220703125" xml:space="preserve" height="88.89810462397647" width="50.80781744198263" preserveAspectRatio="xMinYMin" enable-background="new 0 0 2000 2000" style="overflow: visible;"><polygon class="st0" points="851,1025.1 851,1079.9 851,1081.1 851.9,1080.5 910.1,1118 910.1,1046.6 1014,985.9 1014,918.1    851,1013.3  " style="fill: #0fffff; fill-opacity: 1;"></polygon><polygon class="st0" points="851,927.9 851,995.8 1014,900.6 1014,832.8  " style="fill: #0fffff; fill-opacity: 1;"></polygon></svg></g> <g transform="rotate(0 321.79244019783255 287.5002843445505)"><svg x="158.5874383667779" y="274.1652843064035" viewBox="2.869999885559082 0.25999999046325684 326.4100036621094 26.670000076293945" height="26.670000076293945" width="326.4100036621094" style="overflow: visible;"><g fill="#ffffff" fill-opacity="1" style=""><path d="M7.13 26.35L2.87 26.35L2.87 0.84L19.12 0.84L19.12 4.48L7.13 4.48L7.13 11.77L17.87 11.77L17.87 15.35L7.13 15.35L7.13 26.35ZM35.56 26.35L31.31 26.35L31.31 0.84L35.56 0.84L35.56 26.35ZM54.36 4.48L54.36 12.55L59.71 12.55Q61.87 12.55 63.03 11.48Q64.19 10.42 64.19 8.42L64.19 8.42Q64.19 6.64 63.00 5.56Q61.81 4.48 59.61 4.48L59.61 4.48L54.36 4.48ZM54.36 26.35L50.10 26.35L50.10 0.84L60.42 0.84Q64.35 0.84 66.47 2.90Q68.58 4.97 68.58 8.06L68.58 8.06Q68.58 10.67 67.42 12.32Q66.26 13.96 64.74 14.55L64.74 14.55Q65.97 15.38 66.48 16.32Q67.00 17.25 67.35 19.16L67.35 19.16Q68.13 22.96 70.13 26.35L70.13 26.35L65.39 26.35Q63.81 23.67 62.90 19.48L62.90 19.48Q62.55 17.83 61.86 17.00Q61.16 16.16 59.68 16.16L59.68 16.16L54.36 16.16L54.36 26.35ZM80.12 20.90L80.12 20.90L83.86 19.64Q84.76 21.25 86.47 22.27Q88.18 23.28 90.24 23.28L90.24 23.28Q92.37 23.28 93.66 22.25Q94.95 21.22 94.95 19.58L94.95 19.58Q94.95 17.83 93.58 16.87Q92.21 15.90 89.57 15.00L89.57 15.00Q85.79 13.74 84.47 13.00L84.47 13.00Q81.02 11.03 81.02 7.29L81.02 7.29Q81.02 4.13 83.50 2.19Q85.99 0.26 89.99 0.26L89.99 0.26Q93.28 0.26 95.61 1.79Q97.95 3.32 99.02 5.71L99.02 5.71L95.44 6.90Q93.37 3.90 89.95 3.90L89.95 3.90Q87.86 3.90 86.63 4.84Q85.41 5.77 85.41 7.29L85.41 7.29Q85.41 7.74 85.50 8.14Q85.60 8.55 85.89 8.90Q86.18 9.26 86.41 9.51Q86.63 9.77 87.15 10.06Q87.66 10.35 87.97 10.51Q88.28 10.67 88.99 10.93Q89.70 11.19 90.00 11.29Q90.31 11.38 91.15 11.66Q91.99 11.93 92.28 12.03L92.28 12.03Q93.76 12.51 94.89 13.06Q96.02 13.61 97.10 14.46Q98.18 15.32 98.76 16.58Q99.34 17.83 99.34 19.41L99.34 19.41Q99.34 22.99 96.77 24.96Q94.21 26.93 90.15 26.93L90.15 26.93Q86.63 26.93 83.99 25.30Q81.34 23.67 80.12 20.90ZM116.36 4.48L109.00 4.48L109.00 0.84L127.97 0.84L127.97 4.48L120.62 4.48L120.62 26.35L116.36 26.35L116.36 4.48ZM163.81 10.00L161.65 16.61L169.26 16.61L167.10 10.00Q166.88 9.29 166.60 8.42Q166.33 7.55 166.02 6.50Q165.72 5.45 165.56 4.93L165.56 4.93L165.36 4.93Q165.26 5.26 163.81 10.00L163.81 10.00ZM158.43 26.35L153.91 26.35L163.14 0.84L167.81 0.84L177.00 26.35L172.49 26.35L170.39 20.03L160.52 20.03L158.43 26.35ZM187.09 13.58L187.09 13.58Q187.09 7.45 190.25 3.85Q193.41 0.26 198.41 0.26L198.41 0.26Q201.63 0.26 203.94 2.03Q206.25 3.81 207.38 6.42L207.38 6.42L203.73 7.61Q201.67 3.90 198.35 3.90L198.35 3.90Q195.18 3.90 193.33 6.53Q191.48 9.16 191.48 13.58L191.48 13.58Q191.48 18.06 193.35 20.67Q195.22 23.28 198.35 23.28L198.35 23.28Q200.38 23.28 201.94 22.06Q203.51 20.83 204.22 19.06L204.22 19.06L208.02 20.25Q207.54 21.41 206.78 22.49Q206.02 23.58 204.88 24.62Q203.73 25.67 202.05 26.30Q200.38 26.93 198.41 26.93L198.41 26.93Q193.51 26.93 190.30 23.37Q187.09 19.80 187.09 13.58ZM218.94 13.58L218.94 13.58Q218.94 7.45 222.11 3.85Q225.27 0.26 230.26 0.26L230.26 0.26Q233.49 0.26 235.80 2.03Q238.10 3.81 239.23 6.42L239.23 6.42L235.59 7.61Q233.52 3.90 230.20 3.90L230.20 3.90Q227.04 3.90 225.19 6.53Q223.33 9.16 223.33 13.58L223.33 13.58Q223.33 18.06 225.20 20.67Q227.07 23.28 230.20 23.28L230.20 23.28Q232.23 23.28 233.80 22.06Q235.36 20.83 236.07 19.06L236.07 19.06L239.88 20.25Q239.39 21.41 238.63 22.49Q237.88 23.58 236.73 24.62Q235.59 25.67 233.91 26.30Q232.23 26.93 230.26 26.93L230.26 26.93Q225.36 26.93 222.15 23.37Q218.94 19.80 218.94 13.58ZM269.38 26.35L252.32 26.35L252.32 0.84L269.05 0.84L269.05 4.48L256.57 4.48L256.57 11.38L267.83 11.38L267.83 14.96L256.57 14.96L256.57 22.74L269.38 22.74L269.38 26.35ZM280.11 20.90L280.11 20.90L283.85 19.64Q284.75 21.25 286.46 22.27Q288.17 23.28 290.23 23.28L290.23 23.28Q292.36 23.28 293.65 22.25Q294.94 21.22 294.94 19.58L294.94 19.58Q294.94 17.83 293.57 16.87Q292.20 15.90 289.56 15.00L289.56 15.00Q285.78 13.74 284.46 13.00L284.46 13.00Q281.01 11.03 281.01 7.29L281.01 7.29Q281.01 4.13 283.49 2.19Q285.98 0.26 289.98 0.26L289.98 0.26Q293.27 0.26 295.60 1.79Q297.94 3.32 299.01 5.71L299.01 5.71L295.43 6.90Q293.36 3.90 289.94 3.90L289.94 3.90Q287.85 3.90 286.62 4.84Q285.40 5.77 285.40 7.29L285.40 7.29Q285.40 7.74 285.49 8.14Q285.59 8.55 285.88 8.90Q286.17 9.26 286.40 9.51Q286.62 9.77 287.14 10.06Q287.65 10.35 287.96 10.51Q288.27 10.67 288.98 10.93Q289.69 11.19 289.99 11.29Q290.30 11.38 291.14 11.66Q291.98 11.93 292.27 12.03L292.27 12.03Q293.75 12.51 294.88 13.06Q296.01 13.61 297.09 14.46Q298.17 15.32 298.75 16.58Q299.33 17.83 299.33 19.41L299.33 19.41Q299.33 22.99 296.76 24.96Q294.20 26.93 290.14 26.93L290.14 26.93Q286.62 26.93 283.98 25.30Q281.33 23.67 280.11 20.90ZM310.06 20.90L310.06 20.90L313.80 19.64Q314.70 21.25 316.41 22.27Q318.12 23.28 320.19 23.28L320.19 23.28Q322.31 23.28 323.60 22.25Q324.89 21.22 324.89 19.58L324.89 19.58Q324.89 17.83 323.52 16.87Q322.15 15.90 319.51 15.00L319.51 15.00Q315.74 13.74 314.41 13.00L314.41 13.00Q310.96 11.03 310.96 7.29L310.96 7.29Q310.96 4.13 313.45 2.19Q315.93 0.26 319.93 0.26L319.93 0.26Q323.22 0.26 325.56 1.79Q327.89 3.32 328.96 5.71L328.96 5.71L325.38 6.90Q323.31 3.90 319.90 3.90L319.90 3.90Q317.80 3.90 316.57 4.84Q315.35 5.77 315.35 7.29L315.35 7.29Q315.35 7.74 315.45 8.14Q315.54 8.55 315.83 8.90Q316.12 9.26 316.35 9.51Q316.57 9.77 317.09 10.06Q317.61 10.35 317.91 10.51Q318.22 10.67 318.93 10.93Q319.64 11.19 319.94 11.29Q320.25 11.38 321.09 11.66Q321.93 11.93 322.22 12.03L322.22 12.03Q323.70 12.51 324.83 13.06Q325.96 13.61 327.04 14.46Q328.12 15.32 328.70 16.58Q329.28 17.83 329.28 19.41L329.28 19.41Q329.28 22.99 326.72 24.96Q324.15 26.93 320.09 26.93L320.09 26.93Q316.57 26.93 313.93 25.30Q311.28 23.67 310.06 20.90Z" transform="translate(0, 0)"></path></g></svg></g></svg>