<svg xmlns="http://www.w3.org/2000/svg" viewBox="27.5732 212.728 530.1157938964843 213.52219445919133"> <svg xmlns="http://www.w3.org/2000/svg" xmlns:xlink="http://www.w3.org/1999/xlink" version="1.1" id="Livello_1" x="97.5732" y="282.728" viewBox="851 832.7999877929688 163 285.20001220703125" xml:space="preserve" height="73.52219445919133" width="42.02010986394654" preserveAspectRatio="xMinYMin" enable-background="new 0 0 2000 2000" style="overflow: visible;"><polygon class="st0" points="851,1025.1 851,1079.9 851,1081.1 851.9,1080.5 910.1,1118 910.1,1046.6 1014,985.9 1014,918.1    851,1013.3  " style="fill: #0EF0F0; fill-opacity: 1;"></polygon><polygon class="st0" points="851,927.9 851,995.8 1014,900.6 1014,832.8  " style="fill: #0EF0F0; fill-opacity: 1;"></polygon></svg> <svg x="153.289" y="298.314" viewBox="2.25 14.75 334.3999938964844 44.349998474121094" height="44.349998474121094" width="334.3999938964844" style="overflow: visible;"><g fill="#000" style=""><path d="M7.95 50.25L2.25 50.25L2.25 14.75L18.20 14.75L18.20 19.55L7.95 19.55L7.95 30.55L17.55 30.55L17.55 35.10L7.95 35.10L7.95 50.25ZM26.75 21.05L21.15 21.05L21.15 15.75L26.75 15.75L26.75 21.05ZM26.75 50.25L21.15 50.25L21.15 24.80L26.75 24.80L26.75 50.25ZM36.40 50.25L30.80 50.25L30.80 24.80L36.35 24.80L36.35 28.20Q37.15 26.10 38.42 25.20Q39.70 24.30 41.10 24.30L41.10 24.30Q41.45 24.30 41.85 24.35Q42.25 24.40 42.70 24.55L42.70 24.55L42.70 29.55Q40.95 29.35 39.52 29.57Q38.10 29.80 37.25 30.82Q36.40 31.85 36.40 34.10L36.40 34.10L36.40 50.25ZM51.65 50.85L51.65 50.85Q47.25 50.85 45.27 48.35Q43.30 45.85 43.35 42L43.35 42L48.10 41.85Q48.15 46.70 51.65 46.70L51.65 46.70Q53.10 46.70 53.85 45.92Q54.60 45.15 54.60 43.90L54.60 43.90Q54.60 42.55 53.75 41.73Q52.90 40.90 51.45 40.10L51.45 40.10L49.15 38.85Q46.50 37.40 45.20 35.55Q43.90 33.70 43.90 31.20L43.90 31.20Q43.90 27.95 46.05 26.07Q48.20 24.20 51.55 24.20L51.55 24.20Q55.65 24.20 57.52 26.45Q59.40 28.70 59.30 32.60L59.30 32.60L54.55 32.70Q54.50 30.35 53.73 29.35Q52.95 28.35 51.60 28.35L51.60 28.35Q50.20 28.35 49.52 29.05Q48.85 29.75 48.85 30.80L48.85 30.80Q48.85 32 49.52 32.77Q50.20 33.55 51.65 34.40L51.65 34.40L54.60 36.10Q57.05 37.50 58.35 39.10Q59.65 40.70 59.65 43.45L59.65 43.45Q59.65 46.80 57.58 48.83Q55.50 50.85 51.65 50.85ZM70.05 50.85L70.05 50.85Q67.10 50.85 65.53 49.27Q63.95 47.70 63.95 44.55L63.95 44.55L63.95 29.05L61.25 29.05L61.25 24.80L64.15 24.80L64.80 18.25L69.55 18.25L69.55 24.80L73.95 24.80L73.95 29.05L69.55 29.05L69.55 43.45Q69.55 45 70.25 45.60Q70.95 46.20 72.05 46.20L72.05 46.20Q72.55 46.20 73.08 46.15Q73.60 46.10 74.30 45.90L74.30 45.90L74.30 50.10Q72.20 50.85 70.05 50.85ZM87.25 50.25L81.65 50.25L88.80 14.75L96.40 14.75L103.60 50.25L97.80 50.25L96.20 41.70L88.80 41.70L87.25 50.25ZM92.50 20.50L89.60 37.15L95.40 37.15L92.50 20.50ZM113.70 50.85L113.70 50.85Q111.10 50.85 109.10 49.55Q107.10 48.25 105.95 45.33Q104.80 42.40 104.80 37.55L104.80 37.55Q104.80 32.65 105.95 29.72Q107.10 26.80 109.10 25.50Q111.10 24.20 113.70 24.20L113.70 24.20Q115.95 24.20 117.73 25.15Q119.50 26.10 120.60 28.38Q121.70 30.65 121.80 34.60L121.80 34.60L116.90 34.90Q116.70 31.45 116.05 30Q115.40 28.55 113.80 28.55L113.80 28.55Q112.15 28.55 111.33 29.97Q110.50 31.40 110.50 34.95L110.50 34.95L110.50 40.10Q110.50 43.60 111.33 45.02Q112.15 46.45 113.80 46.45L113.80 46.45Q115.45 46.45 116.08 45Q116.70 43.55 116.90 40.10L116.90 40.10L121.85 40.40Q121.75 44.35 120.65 46.63Q119.55 48.90 117.75 49.88Q115.95 50.85 113.70 50.85ZM133.25 50.85L133.25 50.85Q130.65 50.85 128.65 49.55Q126.65 48.25 125.50 45.33Q124.35 42.40 124.35 37.55L124.35 37.55Q124.35 32.65 125.50 29.72Q126.65 26.80 128.65 25.50Q130.65 24.20 133.25 24.20L133.25 24.20Q135.50 24.20 137.28 25.15Q139.05 26.10 140.15 28.38Q141.25 30.65 141.35 34.60L141.35 34.60L136.45 34.90Q136.25 31.45 135.60 30Q134.95 28.55 133.35 28.55L133.35 28.55Q131.70 28.55 130.88 29.97Q130.05 31.40 130.05 34.95L130.05 34.95L130.05 40.10Q130.05 43.60 130.88 45.02Q131.70 46.45 133.35 46.45L133.35 46.45Q135 46.45 135.63 45Q136.25 43.55 136.45 40.10L136.45 40.10L141.40 40.40Q141.30 44.35 140.20 46.63Q139.10 48.90 137.30 49.88Q135.50 50.85 133.25 50.85ZM152.80 50.85L152.80 50.85Q150.20 50.85 148.18 49.58Q146.15 48.30 145.03 45.38Q143.90 42.45 143.90 37.55L143.90 37.55Q143.90 32.65 145.05 29.72Q146.20 26.80 148.20 25.50Q150.20 24.20 152.80 24.20L152.80 24.20Q155.65 24.20 157.35 25.50Q159.05 26.80 159.88 28.92Q160.70 31.05 160.85 33.52Q161 36 160.80 38.35L160.80 38.35L149.50 38.35L149.50 40.15Q149.50 43.80 150.38 45.20Q151.25 46.60 152.90 46.60L152.90 46.60Q154.45 46.60 155.08 45.35Q155.70 44.10 156 41.15L156 41.15L160.95 41.55Q160.65 46.55 158.40 48.70Q156.15 50.85 152.80 50.85ZM149.50 34.65L149.50 34.65L149.50 34.80L155.95 34.80L155.95 34.50Q155.95 30.95 155.20 29.65Q154.45 28.35 152.90 28.35L152.90 28.35Q151.30 28.35 150.40 29.72Q149.50 31.10 149.50 34.65ZM171.55 50.85L171.55 50.85Q167.15 50.85 165.18 48.35Q163.20 45.85 163.25 42L163.25 42L168 41.85Q168.05 46.70 171.55 46.70L171.55 46.70Q173 46.70 173.75 45.92Q174.50 45.15 174.50 43.90L174.50 43.90Q174.50 42.55 173.65 41.73Q172.80 40.90 171.35 40.10L171.35 40.10L169.05 38.85Q166.40 37.40 165.10 35.55Q163.80 33.70 163.80 31.20L163.80 31.20Q163.80 27.95 165.95 26.07Q168.10 24.20 171.45 24.20L171.45 24.20Q175.55 24.20 177.43 26.45Q179.30 28.70 179.20 32.60L179.20 32.60L174.45 32.70Q174.40 30.35 173.63 29.35Q172.85 28.35 171.50 28.35L171.50 28.35Q170.10 28.35 169.43 29.05Q168.75 29.75 168.75 30.80L168.75 30.80Q168.75 32 169.43 32.77Q170.10 33.55 171.55 34.40L171.55 34.40L174.50 36.10Q176.95 37.50 178.25 39.10Q179.55 40.70 179.55 43.45L179.55 43.45Q179.55 46.80 177.48 48.83Q175.40 50.85 171.55 50.85ZM189.90 50.85L189.90 50.85Q185.50 50.85 183.53 48.35Q181.55 45.85 181.60 42L181.60 42L186.35 41.85Q186.40 46.70 189.90 46.70L189.90 46.70Q191.35 46.70 192.10 45.92Q192.85 45.15 192.85 43.90L192.85 43.90Q192.85 42.55 192 41.73Q191.15 40.90 189.70 40.10L189.70 40.10L187.40 38.85Q184.75 37.40 183.45 35.55Q182.15 33.70 182.15 31.20L182.15 31.20Q182.15 27.95 184.30 26.07Q186.45 24.20 189.80 24.20L189.80 24.20Q193.90 24.20 195.78 26.45Q197.65 28.70 197.55 32.60L197.55 32.60L192.80 32.70Q192.75 30.35 191.97 29.35Q191.20 28.35 189.85 28.35L189.85 28.35Q188.45 28.35 187.78 29.05Q187.10 29.75 187.10 30.80L187.10 30.80Q187.10 32 187.78 32.77Q188.45 33.55 189.90 34.40L189.90 34.40L192.85 36.10Q195.30 37.50 196.60 39.10Q197.90 40.70 197.90 43.45L197.90 43.45Q197.90 46.80 195.83 48.83Q193.75 50.85 189.90 50.85ZM224.20 50.25L208.40 50.25L208.40 14.75L214.10 14.75L214.10 45.45L224.20 45.45L224.20 50.25ZM234.30 50.85L234.30 50.85Q231.70 50.85 229.67 49.58Q227.65 48.30 226.52 45.38Q225.40 42.45 225.40 37.55L225.40 37.55Q225.40 32.65 226.55 29.72Q227.70 26.80 229.70 25.50Q231.70 24.20 234.30 24.20L234.30 24.20Q237.15 24.20 238.85 25.50Q240.55 26.80 241.37 28.92Q242.20 31.05 242.35 33.52Q242.50 36 242.30 38.35L242.30 38.35L231.00 38.35L231.00 40.15Q231.00 43.80 231.87 45.20Q232.75 46.60 234.40 46.60L234.40 46.60Q235.95 46.60 236.57 45.35Q237.20 44.10 237.50 41.15L237.50 41.15L242.45 41.55Q242.15 46.55 239.90 48.70Q237.65 50.85 234.30 50.85ZM231.00 34.65L231.00 34.65L231.00 34.80L237.45 34.80L237.45 34.50Q237.45 30.95 236.70 29.65Q235.95 28.35 234.40 28.35L234.40 28.35Q232.80 28.35 231.90 29.72Q231.00 31.10 231.00 34.65ZM251.45 50.25L245.85 50.25L245.85 24.80L251.40 24.80L251.40 27.85Q252.30 25.95 253.77 25.07Q255.25 24.20 256.90 24.20L256.90 24.20Q259.55 24.20 261.10 26Q262.65 27.80 262.65 31.45L262.65 31.45L262.65 50.25L257.05 50.25L257.05 32.40Q257.05 30.35 256.38 29.50Q255.70 28.65 254.45 28.65L254.45 28.65Q253.25 28.65 252.35 29.47Q251.45 30.30 251.45 32.50L251.45 32.50L251.45 50.25ZM273.30 50.85L273.30 50.85Q271.30 50.85 269.62 49.58Q267.95 48.30 266.95 45.38Q265.95 42.45 265.95 37.55L265.95 37.55Q265.95 32.55 266.95 29.65Q267.95 26.75 269.65 25.47Q271.35 24.20 273.40 24.20L273.40 24.20Q274.90 24.20 276.12 24.90Q277.35 25.60 278.20 27.15L278.20 27.15L278.20 14.75L283.80 14.75L283.80 50.25L278.25 50.25L278.25 47.70Q277.45 49.35 276.17 50.10Q274.90 50.85 273.30 50.85ZM271.65 34.55L271.65 40.50Q271.65 43.60 272.47 45.05Q273.30 46.50 274.85 46.50L274.85 46.50Q276.25 46.50 277.22 45.45Q278.20 44.40 278.20 41.35L278.20 41.35L278.20 34Q278.20 30.70 277.22 29.60Q276.25 28.50 274.85 28.50L274.85 28.50Q273.30 28.50 272.47 29.95Q271.65 31.40 271.65 34.55L271.65 34.55ZM293.50 21.05L287.90 21.05L287.90 15.75L293.50 15.75L293.50 21.05ZM293.50 50.25L287.90 50.25L287.90 24.80L293.50 24.80L293.50 50.25ZM303.15 50.25L297.55 50.25L297.55 24.80L303.10 24.80L303.10 27.85Q304.00 25.95 305.47 25.07Q306.95 24.20 308.60 24.20L308.60 24.20Q311.25 24.20 312.80 26Q314.35 27.80 314.35 31.45L314.35 31.45L314.35 50.25L308.75 50.25L308.75 32.40Q308.75 30.35 308.07 29.50Q307.40 28.65 306.15 28.65L306.15 28.65Q304.95 28.65 304.05 29.47Q303.15 30.30 303.15 32.50L303.15 32.50L303.15 50.25ZM326.25 59.10L326.25 59.10Q321.40 59.10 319.15 57.38Q316.90 55.65 316.90 53.05L316.90 53.05Q316.90 51.30 318.05 49.77Q319.20 48.25 321.55 47.45L321.55 47.45Q320.35 46.80 319.77 45.77Q319.20 44.75 319.20 43.70L319.20 43.70Q319.20 42.60 319.70 41.63Q320.20 40.65 321.00 39.90L321.00 39.90Q317.45 37.70 317.45 32.75L317.45 32.75Q317.45 29 319.67 26.60Q321.90 24.20 326.15 24.20L326.15 24.20Q328.80 24.20 330.75 25.20L330.75 25.20Q331.55 23.55 332.67 22.75Q333.80 21.95 335.10 21.95L335.10 21.95Q335.70 21.95 336.30 22.10L336.30 22.10L336.30 26.60Q335.40 26.50 334.60 26.60Q333.80 26.70 333.15 27.15L333.15 27.15Q334.95 29.40 334.95 32.75L334.95 32.75Q334.95 36.55 332.67 38.90Q330.40 41.25 326.15 41.25L326.15 41.25Q324.90 41.25 323.85 41.05L323.85 41.05Q323.55 41.60 323.55 42.20L323.55 42.20Q323.55 43.60 325.80 44.05L325.80 44.05L330.50 44.95Q333.75 45.60 335.20 47.35Q336.65 49.10 336.65 51.45L336.65 51.45Q336.65 55.20 333.82 57.15Q331.00 59.10 326.25 59.10ZM326.15 37.70L326.15 37.70Q327.90 37.70 328.65 36.42Q329.40 35.15 329.40 32.70L329.40 32.70Q329.40 30.30 328.65 29.02Q327.90 27.75 326.15 27.75L326.15 27.75Q324.40 27.75 323.67 29.05Q322.95 30.35 322.95 32.70L322.95 32.70Q322.95 35.25 323.70 36.48Q324.45 37.70 326.15 37.70ZM321.65 52.20L321.65 52.20Q321.65 53.80 322.95 54.55Q324.25 55.30 326.60 55.30L326.60 55.30Q329.05 55.30 330.42 54.55Q331.80 53.80 331.80 52.40L331.80 52.40Q331.80 51.30 330.97 50.58Q330.15 49.85 328.30 49.50L328.30 49.50L324.40 48.90Q321.65 50 321.65 52.20Z" transform="translate(0, 0)"></path></g></svg></svg>