<svg xmlns="http://www.w3.org/2000/svg" viewBox="-8.178800000000003 240.139 730.9787877929688 213.52219445919133"> <svg xmlns="http://www.w3.org/2000/svg" xmlns:xlink="http://www.w3.org/1999/xlink" version="1.1" id="Livello_1" x="61.8212" y="310.139" viewBox="851 832.7999877929688 163 285.20001220703125" xml:space="preserve" height="73.52219445919133" width="42.02010986394654" preserveAspectRatio="xMinYMin" enable-background="new 0 0 2000 2000" style="overflow: visible;"><polygon class="st0" points="851,1025.1 851,1079.9 851,1081.1 851.9,1080.5 910.1,1118 910.1,1046.6 1014,985.9 1014,918.1    851,1013.3  " style="fill: #0EF0F0; fill-opacity: 1;"></polygon><polygon class="st0" points="851,927.9 851,995.8 1014,900.6 1014,832.8  " style="fill: #0EF0F0; fill-opacity: 1;"></polygon></svg> <svg x="121" y="326.21999389648437" viewBox="3.450000047683716 13.300000190734863 531.7999877929688 52.29999923706055" height="52.29999923706055" width="531.7999877929688" style="overflow: visible;"><g fill="#000" style=""><path d="M3.45 17.60L25 17.60L25 23.25L10.45 23.25L10.45 32.20L21.60 32.20L21.60 37.75L10.45 37.75L10.45 52.50L3.45 52.50L3.45 17.60ZM33.50 21.50Q31.65 21.50 30.43 20.32Q29.20 19.15 29.20 17.40L29.20 17.40Q29.20 15.65 30.43 14.48Q31.65 13.30 33.50 13.30L33.50 13.30Q35.35 13.30 36.58 14.48Q37.80 15.65 37.80 17.40L37.80 17.40Q37.80 19.15 36.58 20.32Q35.35 21.50 33.50 21.50L33.50 21.50ZM29.95 24.80L36.95 24.80L36.95 52.50L29.95 52.50L29.95 24.80ZM50.85 29.10Q52.20 26.90 54.38 25.65Q56.55 24.40 59.35 24.40L59.35 24.40L59.35 31.75L57.50 31.75Q54.20 31.75 52.52 33.30Q50.85 34.85 50.85 38.70L50.85 38.70L50.85 52.50L43.85 52.50L43.85 24.80L50.85 24.80L50.85 29.10ZM74.65 52.95Q71.25 52.95 68.55 51.73Q65.85 50.50 64.28 48.40Q62.70 46.30 62.55 43.75L62.55 43.75L69.60 43.75Q69.80 45.35 71.17 46.40Q72.55 47.45 74.60 47.45L74.60 47.45Q76.60 47.45 77.72 46.65Q78.85 45.85 78.85 44.60L78.85 44.60Q78.85 43.25 77.47 42.58Q76.10 41.90 73.10 41.10L73.10 41.10Q70 40.35 68.03 39.55Q66.05 38.75 64.63 37.10Q63.20 35.45 63.20 32.65L63.20 32.65Q63.20 30.35 64.53 28.45Q65.85 26.55 68.33 25.45Q70.80 24.35 74.15 24.35L74.15 24.35Q79.10 24.35 82.05 26.82Q85 29.30 85.30 33.50L85.30 33.50L78.60 33.50Q78.45 31.85 77.22 30.88Q76 29.90 73.95 29.90L73.95 29.90Q72.05 29.90 71.03 30.60Q70 31.30 70 32.55L70 32.55Q70 33.95 71.40 34.67Q72.80 35.40 75.75 36.15L75.75 36.15Q78.75 36.90 80.70 37.70Q82.65 38.50 84.08 40.17Q85.50 41.85 85.55 44.60L85.55 44.60Q85.55 47 84.22 48.90Q82.90 50.80 80.43 51.88Q77.95 52.95 74.65 52.95L74.65 52.95ZM105.65 30.55L99.45 30.55L99.45 43.95Q99.45 45.35 100.13 45.98Q100.80 46.60 102.40 46.60L102.40 46.60L105.65 46.60L105.65 52.50L101.25 52.50Q92.40 52.50 92.40 43.90L92.40 43.90L92.40 30.55L89.10 30.55L89.10 24.80L92.40 24.80L92.40 17.95L99.45 17.95L99.45 24.80L105.65 24.80L105.65 30.55ZM146.30 52.50L144 45.85L130.10 45.85L127.80 52.50L120.45 52.50L133 17.55L141.15 17.55L153.70 52.50L146.30 52.50ZM132 40.25L142.10 40.25L137.05 25.65L132 40.25ZM156.60 38.65Q156.60 34.35 158.35 31.13Q160.10 27.90 163.20 26.13Q166.30 24.35 170.30 24.35L170.30 24.35Q175.45 24.35 178.83 26.92Q182.20 29.50 183.35 34.15L183.35 34.15L175.80 34.15Q175.20 32.35 173.78 31.32Q172.35 30.30 170.25 30.30L170.25 30.30Q167.25 30.30 165.50 32.47Q163.75 34.65 163.75 38.65L163.75 38.65Q163.75 42.60 165.50 44.77Q167.25 46.95 170.25 46.95L170.25 46.95Q174.50 46.95 175.80 43.15L175.80 43.15L183.35 43.15Q182.20 47.65 178.80 50.30Q175.40 52.95 170.30 52.95L170.30 52.95Q166.30 52.95 163.20 51.17Q160.10 49.40 158.35 46.17Q156.60 42.95 156.60 38.65L156.60 38.65ZM186.70 38.65Q186.70 34.35 188.45 31.13Q190.20 27.90 193.30 26.13Q196.40 24.35 200.40 24.35L200.40 24.35Q205.55 24.35 208.93 26.92Q212.30 29.50 213.45 34.15L213.45 34.15L205.90 34.15Q205.30 32.35 203.88 31.32Q202.45 30.30 200.35 30.30L200.35 30.30Q197.35 30.30 195.60 32.47Q193.85 34.65 193.85 38.65L193.85 38.65Q193.85 42.60 195.60 44.77Q197.35 46.95 200.35 46.95L200.35 46.95Q204.60 46.95 205.90 43.15L205.90 43.15L213.45 43.15Q212.30 47.65 208.90 50.30Q205.50 52.95 200.40 52.95L200.40 52.95Q196.40 52.95 193.30 51.17Q190.20 49.40 188.45 46.17Q186.70 42.95 186.70 38.65L186.70 38.65ZM244.35 38.05Q244.35 39.55 244.15 40.75L244.15 40.75L223.90 40.75Q224.15 43.75 226 45.45Q227.85 47.15 230.55 47.15L230.55 47.15Q234.45 47.15 236.10 43.80L236.10 43.80L243.65 43.80Q242.45 47.80 239.05 50.38Q235.65 52.95 230.70 52.95L230.70 52.95Q226.70 52.95 223.53 51.17Q220.35 49.40 218.58 46.15Q216.80 42.90 216.80 38.65L216.80 38.65Q216.80 34.35 218.55 31.10Q220.30 27.85 223.45 26.10Q226.60 24.35 230.70 24.35L230.70 24.35Q234.65 24.35 237.78 26.05Q240.90 27.75 242.63 30.88Q244.35 34 244.35 38.05L244.35 38.05ZM223.95 36.05L237.10 36.05Q237.05 33.35 235.15 31.72Q233.25 30.10 230.50 30.10L230.50 30.10Q227.90 30.10 226.13 31.67Q224.35 33.25 223.95 36.05L223.95 36.05ZM260.05 52.95Q256.65 52.95 253.95 51.73Q251.25 50.50 249.68 48.40Q248.10 46.30 247.95 43.75L247.95 43.75L255 43.75Q255.20 45.35 256.57 46.40Q257.95 47.45 260 47.45L260 47.45Q262 47.45 263.13 46.65Q264.25 45.85 264.25 44.60L264.25 44.60Q264.25 43.25 262.88 42.58Q261.50 41.90 258.50 41.10L258.50 41.10Q255.40 40.35 253.43 39.55Q251.45 38.75 250.03 37.10Q248.60 35.45 248.60 32.65L248.60 32.65Q248.60 30.35 249.93 28.45Q251.25 26.55 253.72 25.45Q256.20 24.35 259.55 24.35L259.55 24.35Q264.50 24.35 267.45 26.82Q270.40 29.30 270.70 33.50L270.70 33.50L264 33.50Q263.85 31.85 262.63 30.88Q261.40 29.90 259.35 29.90L259.35 29.90Q257.45 29.90 256.43 30.60Q255.40 31.30 255.40 32.55L255.40 32.55Q255.40 33.95 256.80 34.67Q258.20 35.40 261.15 36.15L261.15 36.15Q264.15 36.90 266.10 37.70Q268.05 38.50 269.48 40.17Q270.90 41.85 270.95 44.60L270.95 44.60Q270.95 47 269.63 48.90Q268.30 50.80 265.82 51.88Q263.35 52.95 260.05 52.95L260.05 52.95ZM287.30 52.95Q283.90 52.95 281.20 51.73Q278.50 50.50 276.93 48.40Q275.35 46.30 275.20 43.75L275.20 43.75L282.25 43.75Q282.45 45.35 283.82 46.40Q285.20 47.45 287.25 47.45L287.25 47.45Q289.25 47.45 290.38 46.65Q291.50 45.85 291.50 44.60L291.50 44.60Q291.50 43.25 290.13 42.58Q288.75 41.90 285.75 41.10L285.75 41.10Q282.65 40.35 280.68 39.55Q278.70 38.75 277.27 37.10Q275.85 35.45 275.85 32.65L275.85 32.65Q275.85 30.35 277.18 28.45Q278.50 26.55 280.98 25.45Q283.45 24.35 286.80 24.35L286.80 24.35Q291.75 24.35 294.70 26.82Q297.65 29.30 297.95 33.50L297.95 33.50L291.25 33.50Q291.10 31.85 289.88 30.88Q288.65 29.90 286.60 29.90L286.60 29.90Q284.70 29.90 283.68 30.60Q282.65 31.30 282.65 32.55L282.65 32.55Q282.65 33.95 284.05 34.67Q285.45 35.40 288.40 36.15L288.40 36.15Q291.40 36.90 293.35 37.70Q295.30 38.50 296.73 40.17Q298.15 41.85 298.20 44.60L298.20 44.60Q298.20 47 296.88 48.90Q295.55 50.80 293.07 51.88Q290.60 52.95 287.30 52.95L287.30 52.95ZM339.55 52.50L337.25 45.85L323.35 45.85L321.05 52.50L313.70 52.50L326.25 17.55L334.40 17.55L346.95 52.50L339.55 52.50ZM325.25 40.25L335.35 40.25L330.30 25.65L325.25 40.25ZM349.85 38.55Q349.85 34.35 351.52 31.10Q353.20 27.85 356.10 26.10Q359 24.35 362.55 24.35L362.55 24.35Q365.25 24.35 367.70 25.52Q370.15 26.70 371.60 28.65L371.60 28.65L371.60 15.50L378.70 15.50L378.70 52.50L371.60 52.50L371.60 48.40Q370.30 50.45 367.95 51.70Q365.60 52.95 362.50 52.95L362.50 52.95Q359 52.95 356.10 51.15Q353.20 49.35 351.52 46.08Q349.85 42.80 349.85 38.55L349.85 38.55ZM371.65 38.65Q371.65 36.10 370.65 34.27Q369.65 32.45 367.95 31.47Q366.25 30.50 364.30 30.50L364.30 30.50Q362.35 30.50 360.70 31.45Q359.05 32.40 358.02 34.22Q357 36.05 357 38.55L357 38.55Q357 41.05 358.02 42.92Q359.05 44.80 360.72 45.80Q362.40 46.80 364.30 46.80L364.30 46.80Q366.25 46.80 367.95 45.83Q369.65 44.85 370.65 43.02Q371.65 41.20 371.65 38.65L371.65 38.65ZM390.10 24.80L397.10 46.05L404.10 24.80L411.55 24.80L401.30 52.50L392.80 52.50L382.60 24.80L390.10 24.80ZM419.05 21.50Q417.20 21.50 415.97 20.32Q414.75 19.15 414.75 17.40L414.75 17.40Q414.75 15.65 415.97 14.48Q417.20 13.30 419.05 13.30L419.05 13.30Q420.90 13.30 422.12 14.48Q423.35 15.65 423.35 17.40L423.35 17.40Q423.35 19.15 422.12 20.32Q420.90 21.50 419.05 21.50L419.05 21.50ZM415.50 24.80L422.50 24.80L422.50 52.50L415.50 52.50L415.50 24.80ZM440.00 52.95Q436.60 52.95 433.90 51.73Q431.20 50.50 429.62 48.40Q428.05 46.30 427.90 43.75L427.90 43.75L434.95 43.75Q435.15 45.35 436.52 46.40Q437.90 47.45 439.95 47.45L439.95 47.45Q441.95 47.45 443.07 46.65Q444.20 45.85 444.20 44.60L444.20 44.60Q444.20 43.25 442.82 42.58Q441.45 41.90 438.45 41.10L438.45 41.10Q435.35 40.35 433.37 39.55Q431.40 38.75 429.97 37.10Q428.55 35.45 428.55 32.65L428.55 32.65Q428.55 30.35 429.87 28.45Q431.20 26.55 433.67 25.45Q436.15 24.35 439.50 24.35L439.50 24.35Q444.45 24.35 447.40 26.82Q450.35 29.30 450.65 33.50L450.65 33.50L443.95 33.50Q443.80 31.85 442.57 30.88Q441.35 29.90 439.30 29.90L439.30 29.90Q437.40 29.90 436.37 30.60Q435.35 31.30 435.35 32.55L435.35 32.55Q435.35 33.95 436.75 34.67Q438.15 35.40 441.10 36.15L441.10 36.15Q444.10 36.90 446.05 37.70Q448.00 38.50 449.42 40.17Q450.85 41.85 450.90 44.60L450.90 44.60Q450.90 47 449.57 48.90Q448.25 50.80 445.77 51.88Q443.30 52.95 440.00 52.95L440.00 52.95ZM468.95 52.95Q464.95 52.95 461.75 51.17Q458.55 49.40 456.72 46.15Q454.90 42.90 454.90 38.65L454.90 38.65Q454.90 34.40 456.77 31.15Q458.65 27.90 461.90 26.13Q465.15 24.35 469.15 24.35L469.15 24.35Q473.15 24.35 476.40 26.13Q479.65 27.90 481.52 31.15Q483.40 34.40 483.40 38.65L483.40 38.65Q483.40 42.90 481.47 46.15Q479.55 49.40 476.27 51.17Q473.00 52.95 468.95 52.95L468.95 52.95ZM468.95 46.85Q470.85 46.85 472.52 45.92Q474.20 45 475.20 43.15Q476.20 41.30 476.20 38.65L476.20 38.65Q476.20 34.70 474.12 32.58Q472.05 30.45 469.05 30.45L469.05 30.45Q466.05 30.45 464.02 32.58Q462.00 34.70 462.00 38.65L462.00 38.65Q462.00 42.60 463.97 44.73Q465.95 46.85 468.95 46.85L468.95 46.85ZM495.55 29.10Q496.90 26.90 499.07 25.65Q501.25 24.40 504.05 24.40L504.05 24.40L504.05 31.75L502.20 31.75Q498.90 31.75 497.22 33.30Q495.55 34.85 495.55 38.70L495.55 38.70L495.55 52.50L488.55 52.50L488.55 24.80L495.55 24.80L495.55 29.10ZM527.80 24.80L535.25 24.80L518.10 65.60L510.65 65.60L516.65 51.80L505.55 24.80L513.40 24.80L520.55 44.15L527.80 24.80Z" transform="translate(0, 0)"></path></g></svg></svg>